<?xml version="1.0" standalone="no"?>
<!DOCTYPE svg PUBLIC "-//W3C//DTD SVG 20010904//EN"
 "http://www.w3.org/TR/2001/REC-SVG-20010904/DTD/svg10.dtd">
<svg version="1.0" xmlns="http://www.w3.org/2000/svg"
 width="500.000000pt" height="500.000000pt" viewBox="0 0 500.000000 500.000000"
 preserveAspectRatio="xMidYMid meet">
<metadata>
Created by potrace 1.14, written by Peter Selinger 2001-2017
</metadata>
<g transform="translate(0.000000,500.000000) scale(0.100000,-0.100000)"
fill="#000000" stroke="none">
<path d="M2428 4885 c-2 -1 -48 -5 -103 -8 -113 -6 -302 -37 -416 -67 -160
-41 -449 -152 -490 -187 -8 -7 -19 -13 -24 -13 -14 0 -226 -127 -270 -162
-173 -137 -224 -180 -295 -249 -195 -192 -348 -404 -468 -650 -90 -185 -151
-351 -177 -479 -2 -8 -10 -44 -18 -80 -8 -36 -18 -87 -22 -113 -3 -27 -8 -59
-11 -70 -23 -114 -22 -496 2 -634 34 -201 46 -257 84 -378 89 -290 233 -561
421 -795 757 -938 2082 -1170 3112 -544 298 181 550 427 757 737 126 189 273
527 315 723 48 225 52 252 62 389 20 292 -1 524 -73 803 -103 399 -313 766
-611 1067 -106 107 -137 135 -223 201 -255 197 -555 348 -843 423 -173 46
-253 60 -422 77 -60 6 -283 13 -287 9z m162 -729 c18 -33 104 -183 192 -335
88 -152 190 -328 226 -391 36 -63 72 -123 80 -132 8 -10 11 -18 6 -18 -5 0 -4
-4 1 -8 6 -4 15 -16 21 -27 6 -11 55 -96 109 -190 54 -93 122 -210 150 -260
29 -49 71 -122 93 -162 23 -39 50 -87 61 -105 10 -18 51 -89 91 -158 40 -69
81 -140 91 -158 56 -97 172 -298 218 -374 28 -48 51 -89 51 -92 0 -3 16 -30
35 -61 19 -30 40 -65 45 -77 6 -13 23 -43 39 -68 16 -25 30 -50 30 -56 1 -9
-410 -12 -1624 -12 -894 0 -1625 2 -1625 4 0 2 25 48 56 102 31 53 66 113 76
132 11 19 24 40 28 45 4 6 20 32 35 60 15 27 69 122 120 210 51 88 136 237
190 330 53 94 104 181 113 195 9 14 15 27 15 30 0 3 7 16 17 30 9 14 104 176
210 360 106 184 222 384 257 443 34 60 63 113 63 118 0 5 5 9 10 9 6 0 10 4
10 9 0 6 82 151 181 323 100 172 196 339 213 370 l31 57 26 -42 c14 -23 41
-69 59 -101z"/>
</g>
</svg>
